<mxfile host="app.diagrams.net" agent="Mozilla/5.0 (Windows NT 10.0; Win64; x64; rv:134.0) Gecko/20100101 Firefox/134.0" version="26.0.5">
  <diagram name="Page-1" id="E4wf14jWZjM0e14n7IuA">
    <mxGraphModel dx="1050" dy="2486" grid="1" gridSize="10" guides="1" tooltips="1" connect="1" arrows="1" fold="1" page="1" pageScale="1" pageWidth="1200" pageHeight="1920" math="0" shadow="0">
      <root>
        <mxCell id="0" />
        <mxCell id="1" parent="0" />
        <mxCell id="SVNqQnyOk3BUrDzZ9YOz-11" value="" style="shape=cube;whiteSpace=wrap;html=1;boundedLbl=1;backgroundOutline=1;darkOpacity=0.05;darkOpacity2=0.1;" parent="1" vertex="1">
          <mxGeometry x="190" y="-550" width="660" height="420" as="geometry" />
        </mxCell>
        <mxCell id="4" value="Code Execution Server" style="whiteSpace=wrap;strokeWidth=2;verticalAlign=top;" parent="1" vertex="1">
          <mxGeometry x="240" y="-360" width="140" height="30" as="geometry" />
        </mxCell>
        <mxCell id="5" value="Code Execution Container" style="ellipse;aspect=fixed;strokeWidth=2;whiteSpace=wrap;" parent="1" vertex="1">
          <mxGeometry x="265" y="-230" width="90" height="90" as="geometry" />
        </mxCell>
        <mxCell id="7" value="Management Frontend" style="rounded=1;absoluteArcSize=1;arcSize=14;whiteSpace=wrap;strokeWidth=2;" parent="1" vertex="1">
          <mxGeometry x="540" y="-520" width="131.22" height="34" as="geometry" />
        </mxCell>
        <mxCell id="8" value="Applicant Frontend" style="rounded=1;absoluteArcSize=1;arcSize=14;whiteSpace=wrap;strokeWidth=2;" parent="1" vertex="1">
          <mxGeometry x="235.5" y="-520" width="149" height="34" as="geometry" />
        </mxCell>
        <mxCell id="11" value="" style="curved=1;startArrow=none;endArrow=block;exitX=0.5;exitY=1;exitDx=0;exitDy=0;" parent="1" edge="1">
          <mxGeometry relative="1" as="geometry">
            <Array as="points" />
            <mxPoint x="606.0000000000001" y="-486" as="sourcePoint" />
            <mxPoint x="607.4521276595748" y="-360" as="targetPoint" />
          </mxGeometry>
        </mxCell>
        <mxCell id="l5N1Bfa5sSR1C01T4Idd-29" value="Send out invites&lt;br&gt;Create applicants&lt;br&gt;View applicant results" style="edgeLabel;html=1;align=center;verticalAlign=middle;resizable=0;points=[];" parent="11" connectable="0" vertex="1">
          <mxGeometry x="-0.3646" y="3" relative="1" as="geometry">
            <mxPoint x="62" y="16" as="offset" />
          </mxGeometry>
        </mxCell>
        <mxCell id="l5N1Bfa5sSR1C01T4Idd-14" value="User database" style="shape=datastore;whiteSpace=wrap;html=1;" parent="1" vertex="1">
          <mxGeometry x="690" y="-260" width="110" height="90" as="geometry" />
        </mxCell>
        <mxCell id="l5N1Bfa5sSR1C01T4Idd-16" value="Management Server" style="whiteSpace=wrap;strokeWidth=2;verticalAlign=top;" parent="1" vertex="1">
          <mxGeometry x="543.85" y="-360" width="125.75" height="30" as="geometry" />
        </mxCell>
        <mxCell id="l5N1Bfa5sSR1C01T4Idd-18" value="" style="curved=1;startArrow=none;endArrow=block;exitX=0.5;exitY=1;exitDx=0;exitDy=0;" parent="1" source="8" target="4" edge="1">
          <mxGeometry relative="1" as="geometry">
            <Array as="points" />
            <mxPoint x="526" y="-350" as="sourcePoint" />
            <mxPoint x="526" y="-386" as="targetPoint" />
          </mxGeometry>
        </mxCell>
        <mxCell id="l5N1Bfa5sSR1C01T4Idd-30" value="&lt;div&gt;Run code and tests&lt;/div&gt;" style="edgeLabel;html=1;align=center;verticalAlign=middle;resizable=0;points=[];" parent="l5N1Bfa5sSR1C01T4Idd-18" connectable="0" vertex="1">
          <mxGeometry x="-0.3333" y="5" relative="1" as="geometry">
            <mxPoint x="45" y="14" as="offset" />
          </mxGeometry>
        </mxCell>
        <mxCell id="l5N1Bfa5sSR1C01T4Idd-19" value="Questions Repo" style="rounded=0;whiteSpace=wrap;html=1;" parent="1" vertex="1">
          <mxGeometry x="420" y="-220" width="140" height="30" as="geometry" />
        </mxCell>
        <mxCell id="l5N1Bfa5sSR1C01T4Idd-17" value="" style="sketch=0;outlineConnect=0;fontColor=#232F3E;gradientColor=none;fillColor=#232F3D;strokeColor=none;dashed=0;verticalLabelPosition=bottom;verticalAlign=top;align=center;html=1;fontSize=12;fontStyle=0;aspect=fixed;pointerEvents=1;shape=mxgraph.aws4.git_repository;" parent="1" vertex="1">
          <mxGeometry x="543.85" y="-240" width="53.85" height="70" as="geometry" />
        </mxCell>
        <mxCell id="l5N1Bfa5sSR1C01T4Idd-20" value="" style="endArrow=classic;html=1;rounded=0;entryX=0.5;entryY=0;entryDx=0;entryDy=0;exitX=0.5;exitY=1;exitDx=0;exitDy=0;" parent="1" source="l5N1Bfa5sSR1C01T4Idd-16" target="l5N1Bfa5sSR1C01T4Idd-19" edge="1">
          <mxGeometry width="50" height="50" relative="1" as="geometry">
            <mxPoint x="210" y="-180" as="sourcePoint" />
            <mxPoint x="260" y="-230" as="targetPoint" />
            <Array as="points">
              <mxPoint x="607" y="-290" />
              <mxPoint x="490" y="-290" />
            </Array>
          </mxGeometry>
        </mxCell>
        <mxCell id="l5N1Bfa5sSR1C01T4Idd-21" value="Pull and save on applicant creation" style="edgeLabel;html=1;align=center;verticalAlign=middle;resizable=0;points=[];" parent="l5N1Bfa5sSR1C01T4Idd-20" connectable="0" vertex="1">
          <mxGeometry x="-0.2077" y="5" relative="1" as="geometry">
            <mxPoint x="-57" y="-15" as="offset" />
          </mxGeometry>
        </mxCell>
        <mxCell id="l5N1Bfa5sSR1C01T4Idd-22" value="" style="endArrow=classic;html=1;rounded=0;entryX=0.5;entryY=0;entryDx=0;entryDy=0;exitX=0.5;exitY=1;exitDx=0;exitDy=0;" parent="1" source="l5N1Bfa5sSR1C01T4Idd-16" target="l5N1Bfa5sSR1C01T4Idd-14" edge="1">
          <mxGeometry width="50" height="50" relative="1" as="geometry">
            <mxPoint x="470" y="-250" as="sourcePoint" />
            <mxPoint x="520" y="-300" as="targetPoint" />
            <Array as="points">
              <mxPoint x="607" y="-290" />
              <mxPoint x="745" y="-290" />
            </Array>
          </mxGeometry>
        </mxCell>
        <mxCell id="l5N1Bfa5sSR1C01T4Idd-23" value="Applicant IDs / questionair / scores" style="edgeLabel;html=1;align=center;verticalAlign=middle;resizable=0;points=[];" parent="l5N1Bfa5sSR1C01T4Idd-22" connectable="0" vertex="1">
          <mxGeometry x="-0.1375" relative="1" as="geometry">
            <mxPoint x="83" y="-10" as="offset" />
          </mxGeometry>
        </mxCell>
        <mxCell id="l5N1Bfa5sSR1C01T4Idd-24" value="" style="endArrow=classic;html=1;rounded=0;exitX=0.5;exitY=1;exitDx=0;exitDy=0;entryX=0.5;entryY=0;entryDx=0;entryDy=0;" parent="1" source="4" target="5" edge="1">
          <mxGeometry width="50" height="50" relative="1" as="geometry">
            <mxPoint x="420" y="-240" as="sourcePoint" />
            <mxPoint x="470" y="-290" as="targetPoint" />
            <Array as="points">
              <mxPoint x="310" y="-270" />
            </Array>
          </mxGeometry>
        </mxCell>
        <mxCell id="l5N1Bfa5sSR1C01T4Idd-25" value="Create on questionnaire start" style="edgeLabel;html=1;align=center;verticalAlign=middle;resizable=0;points=[];" parent="l5N1Bfa5sSR1C01T4Idd-24" connectable="0" vertex="1">
          <mxGeometry x="0.0125" relative="1" as="geometry">
            <mxPoint x="-12" y="-10" as="offset" />
          </mxGeometry>
        </mxCell>
        <mxCell id="l5N1Bfa5sSR1C01T4Idd-26" value="" style="endArrow=classic;html=1;rounded=0;exitX=1;exitY=0.5;exitDx=0;exitDy=0;" parent="1" source="4" target="l5N1Bfa5sSR1C01T4Idd-16" edge="1">
          <mxGeometry width="50" height="50" relative="1" as="geometry">
            <mxPoint x="410" y="-320" as="sourcePoint" />
            <mxPoint x="460" y="-370" as="targetPoint" />
          </mxGeometry>
        </mxCell>
        <mxCell id="l5N1Bfa5sSR1C01T4Idd-27" value="Validate applicant hash" style="edgeLabel;html=1;align=center;verticalAlign=middle;resizable=0;points=[];" parent="l5N1Bfa5sSR1C01T4Idd-26" connectable="0" vertex="1">
          <mxGeometry x="-0.2929" y="-2" relative="1" as="geometry">
            <mxPoint x="17" y="-17" as="offset" />
          </mxGeometry>
        </mxCell>
        <mxCell id="l5N1Bfa5sSR1C01T4Idd-31" value="" style="endArrow=classic;startArrow=classic;html=1;rounded=0;entryX=0;entryY=0.5;entryDx=0;entryDy=0;exitX=1;exitY=0.5;exitDx=0;exitDy=0;" parent="1" source="4" target="l5N1Bfa5sSR1C01T4Idd-16" edge="1">
          <mxGeometry width="50" height="50" relative="1" as="geometry">
            <mxPoint x="440" y="-280" as="sourcePoint" />
            <mxPoint x="490" y="-330" as="targetPoint" />
          </mxGeometry>
        </mxCell>
        <mxCell id="SVNqQnyOk3BUrDzZ9YOz-13" value="Authentication service" style="shape=cube;whiteSpace=wrap;html=1;boundedLbl=1;backgroundOutline=1;darkOpacity=0.05;darkOpacity2=0.1;" parent="1" vertex="1">
          <mxGeometry x="870" y="-395" width="200" height="100" as="geometry" />
        </mxCell>
        <mxCell id="SVNqQnyOk3BUrDzZ9YOz-14" value="" style="endArrow=classic;startArrow=classic;html=1;rounded=0;exitX=1;exitY=0.5;exitDx=0;exitDy=0;" parent="1" source="l5N1Bfa5sSR1C01T4Idd-16" target="SVNqQnyOk3BUrDzZ9YOz-13" edge="1">
          <mxGeometry width="50" height="50" relative="1" as="geometry">
            <mxPoint x="680" y="-370" as="sourcePoint" />
            <mxPoint x="730" y="-420" as="targetPoint" />
            <Array as="points" />
          </mxGeometry>
        </mxCell>
        <mxCell id="SVNqQnyOk3BUrDzZ9YOz-15" value="&lt;div&gt;Authenticate Recruiters,&amp;nbsp;&lt;/div&gt;&lt;div&gt;Interviewers and Admins&lt;/div&gt;" style="edgeLabel;html=1;align=center;verticalAlign=middle;resizable=0;points=[];" parent="SVNqQnyOk3BUrDzZ9YOz-14" vertex="1" connectable="0">
          <mxGeometry x="0.1517" y="2" relative="1" as="geometry">
            <mxPoint x="-5" y="-23" as="offset" />
          </mxGeometry>
        </mxCell>
        <mxCell id="SVNqQnyOk3BUrDzZ9YOz-16" value="Recruiter" style="shape=umlActor;verticalLabelPosition=bottom;verticalAlign=top;html=1;outlineConnect=0;" parent="1" vertex="1">
          <mxGeometry x="505" y="-680" width="30" height="60" as="geometry" />
        </mxCell>
        <mxCell id="SVNqQnyOk3BUrDzZ9YOz-18" value="Admin" style="shape=umlActor;verticalLabelPosition=bottom;verticalAlign=top;html=1;outlineConnect=0;" parent="1" vertex="1">
          <mxGeometry x="625" y="-680" width="30" height="60" as="geometry" />
        </mxCell>
        <mxCell id="SVNqQnyOk3BUrDzZ9YOz-20" value="" style="edgeStyle=orthogonalEdgeStyle;rounded=0;orthogonalLoop=1;jettySize=auto;html=1;entryX=0.5;entryY=1;entryDx=0;entryDy=0;" parent="1" source="SVNqQnyOk3BUrDzZ9YOz-19" target="l5N1Bfa5sSR1C01T4Idd-19" edge="1">
          <mxGeometry relative="1" as="geometry" />
        </mxCell>
        <mxCell id="SVNqQnyOk3BUrDzZ9YOz-19" value="Question Maintainer" style="shape=umlActor;verticalLabelPosition=bottom;verticalAlign=top;html=1;outlineConnect=0;" parent="1" vertex="1">
          <mxGeometry x="475" y="-80" width="30" height="60" as="geometry" />
        </mxCell>
        <mxCell id="SVNqQnyOk3BUrDzZ9YOz-21" value="" style="endArrow=classic;html=1;rounded=0;entryX=0.672;entryY=0.004;entryDx=0;entryDy=0;entryPerimeter=0;" parent="1" source="SVNqQnyOk3BUrDzZ9YOz-18" edge="1">
          <mxGeometry width="50" height="50" relative="1" as="geometry">
            <mxPoint x="655" y="-370" as="sourcePoint" />
            <mxPoint x="603.9080000000001" y="-519.864" as="targetPoint" />
            <Array as="points">
              <mxPoint x="605" y="-650" />
            </Array>
          </mxGeometry>
        </mxCell>
        <mxCell id="SVNqQnyOk3BUrDzZ9YOz-23" value="" style="endArrow=classic;html=1;rounded=0;entryX=0.172;entryY=-0.005;entryDx=0;entryDy=0;entryPerimeter=0;" parent="1" source="SVNqQnyOk3BUrDzZ9YOz-16" target="7" edge="1">
          <mxGeometry width="50" height="50" relative="1" as="geometry">
            <mxPoint x="355" y="-440" as="sourcePoint" />
            <mxPoint x="564.3050000000001" y="-522.346" as="targetPoint" />
            <Array as="points">
              <mxPoint x="565" y="-650" />
            </Array>
          </mxGeometry>
        </mxCell>
        <mxCell id="SVNqQnyOk3BUrDzZ9YOz-25" value="&lt;div&gt;Applicant&lt;/div&gt;&lt;div&gt;&lt;br&gt;&lt;/div&gt;" style="shape=umlActor;verticalLabelPosition=bottom;verticalAlign=top;html=1;outlineConnect=0;" parent="1" vertex="1">
          <mxGeometry x="340" y="-680" width="30" height="60" as="geometry" />
        </mxCell>
        <mxCell id="SVNqQnyOk3BUrDzZ9YOz-26" value="" style="endArrow=classic;html=1;rounded=0;entryX=0.5;entryY=0;entryDx=0;entryDy=0;" parent="1" source="SVNqQnyOk3BUrDzZ9YOz-25" target="8" edge="1">
          <mxGeometry width="50" height="50" relative="1" as="geometry">
            <mxPoint x="360" y="-380" as="sourcePoint" />
            <mxPoint x="410" y="-430" as="targetPoint" />
            <Array as="points">
              <mxPoint x="310" y="-650" />
            </Array>
          </mxGeometry>
        </mxCell>
        <mxCell id="SVNqQnyOk3BUrDzZ9YOz-28" value="" style="edgeStyle=orthogonalEdgeStyle;rounded=0;orthogonalLoop=1;jettySize=auto;html=1;" parent="1" source="SVNqQnyOk3BUrDzZ9YOz-27" edge="1">
          <mxGeometry relative="1" as="geometry">
            <mxPoint x="739" y="-650" as="sourcePoint" />
            <mxPoint x="640" y="-520" as="targetPoint" />
            <Array as="points">
              <mxPoint x="709" y="-650" />
              <mxPoint x="709" y="-570" />
              <mxPoint x="640" y="-570" />
              <mxPoint x="640" y="-520" />
            </Array>
          </mxGeometry>
        </mxCell>
        <mxCell id="SVNqQnyOk3BUrDzZ9YOz-27" value="Interviewer" style="shape=umlActor;verticalLabelPosition=bottom;verticalAlign=top;html=1;outlineConnect=0;" parent="1" vertex="1">
          <mxGeometry x="740" y="-680" width="30" height="60" as="geometry" />
        </mxCell>
        <mxCell id="SVNqQnyOk3BUrDzZ9YOz-29" value="" style="endArrow=classic;startArrow=classic;html=1;rounded=0;entryX=0;entryY=0;entryDx=0;entryDy=0;exitX=0.964;exitY=0.959;exitDx=0;exitDy=0;exitPerimeter=0;" parent="1" source="8" target="l5N1Bfa5sSR1C01T4Idd-16" edge="1">
          <mxGeometry width="50" height="50" relative="1" as="geometry">
            <mxPoint x="520" y="-460" as="sourcePoint" />
            <mxPoint x="570" y="-510" as="targetPoint" />
          </mxGeometry>
        </mxCell>
        <mxCell id="SVNqQnyOk3BUrDzZ9YOz-30" value="&lt;div&gt;Retrieving and storing&amp;nbsp;&lt;/div&gt;&lt;div&gt;question cache&lt;/div&gt;" style="edgeLabel;html=1;align=center;verticalAlign=middle;resizable=0;points=[];" parent="SVNqQnyOk3BUrDzZ9YOz-29" vertex="1" connectable="0">
          <mxGeometry x="0.0045" y="-3" relative="1" as="geometry">
            <mxPoint x="60" y="-19" as="offset" />
          </mxGeometry>
        </mxCell>
      </root>
    </mxGraphModel>
  </diagram>
</mxfile>
